HIERARCHY
ROOT Hips
{
	OFFSET 0.000000 0.000000 0.000000
	CHANNELS 6 Xposition Yposition Zposition Zrotation Yrotation Xrotation 
	JOINT LHipJoint
	{
		OFFSET 0.000000 0.000000 0.000000
		CHANNELS 3 Zrotation Yrotation Xrotation
		JOINT LeftUpLeg
		{
			OFFSET 1.363060 -1.794630 0.839290
			CHANNELS 3 Zrotation Yrotation Xrotation
			JOINT LeftLeg
			{
				OFFSET 2.448110 -6.726130 0.000000
				CHANNELS 3 Zrotation Yrotation Xrotation
				JOINT LeftFoot
				{
					OFFSET 2.562200 -7.039590 0.000000
					CHANNELS 3 Zrotation Yrotation Xrotation
					JOINT LeftToeBase
					{
						OFFSET 0.157640 -0.433110 2.322550
						CHANNELS 3 Zrotation Yrotation Xrotation
						End Site
						{
							OFFSET 0.000000 0.000000 0.000000
						}
					}
				}
			}
		}
	}
	JOINT RHipJoint
	{
		OFFSET 0.000000 0.000000 0.000000
		CHANNELS 3 Zrotation Yrotation Xrotation
		JOINT RightUpLeg
		{
			OFFSET -1.305520 -1.794630 0.839290
			CHANNELS 3 Zrotation Yrotation Xrotation
			JOINT RightLeg
			{
				OFFSET -2.542530 -6.985550 0.000000
				CHANNELS 3 Zrotation Yrotation Xrotation
				JOINT RightFoot
				{
					OFFSET -2.568260 -7.056230 0.000000
					CHANNELS 3 Zrotation Yrotation Xrotation
					JOINT RightToeBase
					{
						OFFSET -0.164730 -0.452590 2.363150
						CHANNELS 3 Zrotation Yrotation Xrotation
						End Site
						{
							OFFSET 0.000000 0.000000 0.000000
						}
					}
				}
			}
		}
	}
	JOINT LowerBack
	{
		OFFSET 0.000000 0.000000 0.000000
		CHANNELS 3 Zrotation Yrotation Xrotation
		JOINT Spine
		{
			OFFSET 0.028270 2.035590 -0.193380
			CHANNELS 3 Zrotation Yrotation Xrotation
			JOINT Spine1
			{
				OFFSET 0.056720 2.048850 -0.042750
				CHANNELS 3 Zrotation Yrotation Xrotation
				JOINT Neck
				{
					OFFSET 0.000000 0.000000 0.000000
					CHANNELS 3 Zrotation Yrotation Xrotation
					JOINT Neck1
					{
						OFFSET -0.054170 1.746240 0.172020
						CHANNELS 3 Zrotation Yrotation Xrotation
						JOINT Head
						{
							OFFSET 0.104070 1.761360 -0.123970
							CHANNELS 3 Zrotation Yrotation Xrotation
							End Site
							{
								OFFSET 0.000000 0.000000 0.000000
							}
						}
					}
				}
				JOINT LeftShoulder
				{
					OFFSET 0.000000 0.000000 0.000000
					CHANNELS 3 Zrotation Yrotation Xrotation
					JOINT LeftArm
					{
						OFFSET 3.362410 1.200890 -0.311210
						CHANNELS 3 Zrotation Yrotation Xrotation
						JOINT LeftForeArm
						{
							OFFSET 4.983000 -0.000000 -0.000000
							CHANNELS 3 Zrotation Yrotation Xrotation
							JOINT LeftHand
							{
								OFFSET 3.483560 -0.000000 -0.000000
								CHANNELS 3 Zrotation Yrotation Xrotation
								JOINT LeftFingerBase
								{
									OFFSET 0.000000 0.000000 0.000000
									CHANNELS 3 Zrotation Yrotation Xrotation
									JOINT LeftHandIndex1
									{
										OFFSET 0.715260 -0.000000 -0.000000
										CHANNELS 3 Zrotation Yrotation Xrotation
										End Site
										{
											OFFSET 0.000000 0.000000 0.000000
										}
									}
								}
								JOINT LThumb
								{
									OFFSET 0.000000 0.000000 0.000000
									CHANNELS 3 Zrotation Yrotation Xrotation
									End Site
									{
										OFFSET 0.000000 0.000000 0.000000
									}
								}
							}
						}
					}
				}
				JOINT RightShoulder
				{
					OFFSET 0.000000 0.000000 0.000000
					CHANNELS 3 Zrotation Yrotation Xrotation
					JOINT RightArm
					{
						OFFSET -3.136600 1.374050 -0.404650
						CHANNELS 3 Zrotation Yrotation Xrotation
						JOINT RightForeArm
						{
							OFFSET -5.241900 -0.000000 -0.000000
							CHANNELS 3 Zrotation Yrotation Xrotation
							JOINT RightHand
							{
								OFFSET -3.444170 -0.000000 -0.000000
								CHANNELS 3 Zrotation Yrotation Xrotation
								JOINT RightFingerBase
								{
									OFFSET 0.000000 0.000000 0.000000
									CHANNELS 3 Zrotation Yrotation Xrotation
									JOINT RightHandIndex1
									{
										OFFSET -0.622530 -0.000000 -0.000000
										CHANNELS 3 Zrotation Yrotation Xrotation
										End Site
										{
											OFFSET 0.000000 0.000000 0.000000
										}
									}
								}
								JOINT RThumb
								{
									OFFSET 0.000000 0.000000 0.000000
									CHANNELS 3 Zrotation Yrotation Xrotation
									End Site
									{
										OFFSET 0.000000 0.000000 0.000000
									}
								}
							}
						}
					}
				}
			}
		}
	}
}
MOTION
Frames: 10
Frame Time: 0.008333
13.938521 14.310452 -9.961766 24.443706 -36.150535 60.231139 4.597028 2.140273 0.310323 -10.754311 -17.270483 -37.376267 1.873269 5.711657 15.330401 -5.268225 -23.617780 -10.920679 0.726700 5.446700 15.187200 -3.400854 -4.818677 2.861227 1.652298 6.527967 -127.419162 -16.960399 -22.586403 83.200912 3.252231 16.968027 17.389843 -10.943400 17.907300 -62.597700 11.420797 -4.129849 28.881022 10.993049 -2.146229 12.438191 -2.364755 -0.576810 -11.796646 0.044830 -1.939636 -34.828823 0.543491 -2.958149 2.666352 1.360600 -1.206200 7.411600 6.158207 -3.401157 1.004187 -69.832230 -29.135117 10.431352 18.680827 -27.485243 -4.558992 2.148343 2.483845 -45.790690 38.604996 -19.836071 -14.344500 -7.125000 0.000000 0.000000 4.172300 4.682600 -3.828100 -8.604195 4.083222 3.585126 49.991416 21.974742 4.537983 -30.965217 38.548498 -6.088387 -0.990741 -2.443220 15.059350 -28.691864 3.705705 -3.646000 7.125000 0.000000 0.000000 -1.213600 -22.303000 -0.662400 
13.993795 14.324058 -10.040957 23.026217 -33.519340 60.579596 4.583324 2.135913 0.304518 -9.889062 -17.134032 -37.379770 1.730689 5.553783 14.864031 -4.821188 -23.026946 -13.004638 1.522600 7.791600 22.082900 -3.429086 -4.774036 2.875334 2.194412 6.733463 -126.375783 -16.941739 -22.578763 83.110227 3.338203 17.172096 17.216626 -10.897900 17.884800 -62.449700 11.615339 -4.114339 29.470630 10.617103 -1.968969 12.307214 -2.468706 -0.536034 -12.108539 0.400863 -1.768534 -34.627506 0.336366 -2.841754 2.623019 1.280800 -1.155700 7.352800 6.152885 -3.426523 0.990516 -70.723663 -28.896713 11.386602 19.024024 -28.007967 -4.696661 2.114408 2.507490 -46.312077 38.483721 -20.017686 -14.409200 -7.125000 0.000000 0.000000 4.065500 4.481900 -3.745000 -8.540490 4.093621 3.598341 49.777779 21.961807 3.821087 -31.165403 38.687751 -6.037238 -0.864558 -2.480567 14.989085 -27.129333 4.078855 -3.592500 7.125000 0.000000 0.000000 -0.146800 -22.042800 -0.081000 
14.045349 14.338408 -10.108455 21.936629 -31.292466 60.741994 4.560127 2.155689 0.313684 -9.525646 -17.237218 -37.352381 1.584877 5.503271 14.668903 -4.069808 -21.310210 -15.101192 2.808300 10.378100 30.210100 -3.482721 -4.734737 2.903917 2.236512 6.794105 -125.274110 -16.876718 -22.584951 82.963755 3.222417 16.782106 17.035952 -10.883500 17.877600 -62.402800 11.421813 -4.083890 29.724974 9.924771 -1.952215 12.436808 -2.393214 -0.538773 -12.222278 0.968387 -1.490990 -34.543538 0.147479 -2.651533 2.384892 1.187500 -1.058000 7.255800 6.197343 -3.403100 0.938386 -71.508205 -29.129154 11.712583 18.702426 -27.746711 -4.611769 2.162212 2.456052 -45.466276 38.418981 -20.221738 -14.489300 -7.125000 0.000000 0.000000 3.997600 4.291200 -3.696500 -8.474544 4.067555 3.601354 49.734666 22.050786 3.098450 -31.284575 38.729448 -5.894089 -0.695240 -2.497607 15.067138 -24.862592 4.796937 -3.554800 7.125000 0.000000 0.000000 1.409000 -21.507400 0.794600 
14.093926 14.352333 -10.166280 20.770393 -29.356925 60.855110 4.536190 2.190663 0.329154 -9.198759 -17.538903 -37.049855 1.425692 5.487585 14.552782 -3.110449 -18.782426 -17.233368 4.761900 13.110500 39.783500 -3.558663 -4.711965 2.941074 2.253154 7.123110 -124.162121 -16.788090 -22.601896 82.875121 2.825993 15.551326 16.800055 -11.069600 17.969000 -63.007200 10.917411 -3.941031 29.892267 9.116125 -1.921495 12.729608 -2.170152 -0.512327 -12.219220 1.779452 -1.073160 -34.582645 -0.232630 -2.357637 2.078375 1.017300 -0.917000 7.154300 6.263327 -3.367935 0.868632 -72.270836 -29.586675 11.668112 18.042015 -27.086056 -4.418511 2.229309 2.415288 -44.341140 38.558337 -19.972431 -14.385800 -7.125000 0.000000 0.000000 4.121400 4.570400 -3.789900 -8.410491 4.037509 3.584600 49.729074 22.114412 2.414385 -31.372630 38.826197 -5.883651 -0.621028 -2.542662 14.482886 -23.950260 4.855462 -3.443100 7.125000 0.000000 0.000000 2.033200 -21.500000 1.147300 
14.128579 14.365832 -10.223042 19.168138 -27.397386 60.972426 4.662467 2.305203 0.380602 -8.843503 -17.337546 -36.689693 1.835593 5.578831 14.801738 -5.188308 -22.853654 -10.225519 2.393200 9.641100 27.822200 -3.693443 -4.754601 2.971196 2.695838 8.132234 -122.814551 -16.651742 -22.586560 82.620458 2.569996 14.604833 16.205986 -11.187400 18.025600 -63.388800 10.052304 -3.489727 30.357429 8.808372 -1.592858 12.847134 -1.737280 -0.327723 -12.295113 2.341037 -0.670919 -34.420279 -0.679267 -1.977889 1.875126 0.882300 -0.748500 7.062900 6.326545 -3.345151 0.780950 -73.532416 -30.050036 11.370859 17.035891 -26.074239 -4.149093 2.360816 2.344829 -43.095434 39.004246 -20.014921 -14.579000 -7.125000 0.000000 0.000000 4.371300 4.489000 -4.027800 -8.410530 4.052484 3.602858 49.635964 21.837517 1.812289 -31.395960 38.903987 -6.009553 -0.656502 -2.652067 13.242088 -24.534527 3.847198 -3.139000 7.125000 0.000000 0.000000 1.625400 -22.408700 0.883400 
14.156003 14.391981 -10.273001 17.513796 -25.515416 60.836376 4.745143 2.447967 0.415685 -8.821754 -16.541440 -36.219881 2.231582 5.813466 15.368026 -6.672778 -25.426307 -3.785820 2.934100 10.587500 30.901100 -3.895924 -4.785671 2.993139 3.445243 9.342519 -121.124862 -16.472826 -22.533855 82.120324 2.591161 14.421876 15.428379 -11.110800 17.988900 -63.140800 9.947231 -3.436060 31.313863 7.544299 -1.401778 12.696648 -1.888413 -0.320058 -12.698644 2.770906 -0.381626 -34.396291 -0.423287 -1.728816 1.894966 0.927600 -0.590000 7.041700 6.451792 -3.369100 0.764917 -74.010605 -29.891529 11.174907 16.313762 -25.307351 -3.963919 2.458420 2.313819 -42.534051 39.498659 -19.996292 -14.769500 -7.125000 0.000000 0.000000 4.654500 4.442300 -4.294500 -8.344284 4.055919 3.604541 50.368692 21.615976 1.493234 -31.141435 38.853200 -6.136434 -0.786786 -2.718663 12.419041 -26.164945 2.659942 -2.857800 7.125000 0.000000 0.000000 0.498400 -23.459000 0.258800 
14.176200 14.435031 -10.313925 15.745692 -23.322496 60.608559 4.745649 2.416146 0.386481 -7.758644 -16.347472 -35.055613 2.367785 5.657191 15.107800 -8.262013 -30.452711 -2.611220 5.101200 13.496900 41.258200 -4.006186 -4.786878 3.041187 4.761301 10.683968 -119.232967 -16.213213 -22.448115 81.332741 2.702819 14.510926 14.617215 -10.985400 17.927900 -62.734100 9.575195 -3.136393 32.498026 7.119430 -1.011506 12.521458 -1.792925 -0.159074 -13.152387 2.815789 -0.269610 -34.295797 -0.184533 -1.563701 1.658454 1.024500 -0.484100 6.943300 6.525179 -3.393643 0.746407 -74.915732 -29.541104 11.298522 15.922586 -24.975935 -3.885134 2.505677 2.330228 -42.406802 39.916396 -19.738028 -14.796100 -7.125000 0.000000 0.000000 4.930000 4.643900 -4.531900 -8.361820 4.123274 3.637381 50.720919 21.203531 0.880542 -30.864963 38.735687 -6.290600 -0.999389 -2.715656 11.760733 -28.827973 1.644972 -2.700300 7.125000 0.000000 0.000000 -1.342600 -24.309100 -0.671000 
14.188424 14.486372 -10.349428 13.871799 -20.915357 60.549178 4.690365 2.287988 0.339254 -5.630855 -16.775777 -33.431540 2.212766 5.063211 13.742351 -9.445778 -35.860374 -5.693659 8.116800 16.204500 52.982400 -4.056223 -4.773463 3.089518 6.488610 12.226805 -117.434055 -15.867932 -22.330134 80.292442 2.760796 14.507708 14.004700 -10.963000 17.916900 -62.661300 9.231461 -2.749910 33.441614 7.024116 -0.556384 12.309243 -1.663639 0.056741 -13.471949 2.740848 -0.130202 -34.266121 -0.017118 -1.316280 1.403421 1.129600 -0.347600 6.849200 6.573433 -3.434559 0.727945 -75.991010 -29.006233 11.260870 15.772810 -24.941057 -3.871690 2.512475 2.356672 -42.338747 39.984194 -19.440725 -14.638600 -7.125000 0.000000 0.000000 5.009000 4.957300 -4.575300 -8.402439 4.231300 3.703509 50.912414 20.670843 0.483688 -30.756750 38.620360 -6.307232 -1.062493 -2.706188 11.305004 -29.504906 1.658960 -2.790500 7.125000 0.000000 0.000000 -1.781700 -24.228900 -0.894000 
14.234769 14.538245 -10.392903 12.908692 -18.664971 60.976815 4.653818 2.275792 0.363148 -4.138238 -17.700062 -33.158802 2.187799 4.601651 12.454842 -10.485222 -39.077100 -5.382728 8.932200 16.763900 55.855200 -4.089157 -4.735742 3.073359 7.694089 12.767401 -116.837993 -15.637068 -22.264157 79.597889 2.733792 14.439141 14.028865 -11.115200 17.991000 -63.155300 9.379335 -2.748314 32.948168 6.146289 -0.525153 12.134089 -1.868866 0.031429 -13.382136 3.061226 0.034890 -34.403215 0.015139 -1.190072 1.028750 1.117400 -0.268100 6.741900 6.668809 -3.523288 0.704850 -76.766305 -28.594561 10.845232 15.635289 -24.883687 -3.850984 2.513342 2.357746 -41.918843 39.794104 -19.210051 -14.400200 -7.125000 0.000000 0.000000 4.930900 5.261900 -4.474900 -8.378745 4.311610 3.768426 51.420662 20.041230 0.093271 -30.694211 38.455113 -6.191116 -0.999734 -2.713588 11.626184 -28.428786 2.087647 -2.881000 7.125000 0.000000 0.000000 -1.019000 -23.847300 -0.520100 
14.282709 14.593306 -10.433083 12.348253 -16.708606 61.243981 4.600084 2.284307 0.374897 -3.373403 -18.321280 -32.784788 2.180682 4.006412 10.741009 -11.589810 -41.966094 -4.496638 9.288400 16.989800 57.082200 -4.148814 -4.679415 3.041776 8.433496 12.847462 -116.321930 -15.473672 -22.211357 79.028099 2.843666 14.813027 14.203761 -11.165200 18.015000 -63.316900 9.540421 -2.940523 32.516592 4.760103 -0.692766 11.762117 -2.142298 -0.124419 -13.451882 3.411073 0.130418 -34.304256 0.271664 -1.144167 0.488816 1.148400 -0.212400 6.548600 6.798661 -3.672080 0.736488 -77.153760 -27.628453 11.096809 15.860836 -25.219838 -3.941504 2.490520 2.412400 -42.230485 40.098313 -18.929597 -14.396300 -7.125000 0.000000 0.000000 5.148200 5.452600 -4.655000 -8.322438 4.430903 3.822729 52.299870 19.196480 -0.310613 -30.578731 38.317867 -6.170023 -1.028041 -2.705841 12.377820 -28.593918 1.941486 -2.829200 7.125000 0.000000 0.000000 -1.154200 -23.992200 -0.585300 
